<?xml version="1.0" encoding="UTF-8" standalone="no"?>
<!-- Created with Inkscape (http://www.inkscape.org/) -->

<svg
   xmlns:dc="http://purl.org/dc/elements/1.1/"
   xmlns:cc="http://creativecommons.org/ns#"
   xmlns:rdf="http://www.w3.org/1999/02/22-rdf-syntax-ns#"
   xmlns:svg="http://www.w3.org/2000/svg"
   xmlns="http://www.w3.org/2000/svg"
   xmlns:sodipodi="http://sodipodi.sourceforge.net/DTD/sodipodi-0.dtd"
   xmlns:inkscape="http://www.inkscape.org/namespaces/inkscape"
   width="598.841"
   height="525.68799"
   id="svg3365"
   version="1.1"
   inkscape:version="0.91 r13725"
   sodipodi:docname="All That.svg">
  <defs
     id="defs3367" />
  <sodipodi:namedview
     id="base"
     pagecolor="#ffffff"
     bordercolor="#666666"
     borderopacity="1.0"
     inkscape:pageopacity="0.0"
     inkscape:pageshadow="2"
     inkscape:zoom="0.28300781"
     inkscape:cx="671.23635"
     inkscape:cy="316.7071"
     inkscape:document-units="px"
     inkscape:current-layer="layer1"
     showgrid="false"
     inkscape:window-width="1680"
     inkscape:window-height="931"
     inkscape:window-x="0"
     inkscape:window-y="1"
     inkscape:window-maximized="1"
     fit-margin-top="0"
     fit-margin-left="0"
     fit-margin-right="0"
     fit-margin-bottom="0">
    <inkscape:grid
       type="xygrid"
       id="grid3382"
       empspacing="5"
       visible="true"
       enabled="true"
       snapvisiblegridlinesonly="true"
       originx="182.44789px"
       originy="-339.74947px" />
  </sodipodi:namedview>
  <metadata
     id="metadata3370">
    <rdf:RDF>
      <cc:Work
         rdf:about="">
        <dc:format>image/svg+xml</dc:format>
        <dc:type
           rdf:resource="http://purl.org/dc/dcmitype/StillImage" />
        <dc:title></dc:title>
      </cc:Work>
    </rdf:RDF>
  </metadata>
  <g
     inkscape:label="Layer 1"
     inkscape:groupmode="layer"
     id="layer1"
     transform="translate(182.44789,-186.92466)">
    <path
       style="fill:#000000;fill-opacity:1;stroke:none"
       d="M -137.009,577.56341 C -92.507334,703.25197 22.271766,737.20352 162.74235,694.71603 325.30723,645.54581 451.34966,511.89845 407.6463,388.46457 365.52226,269.49128 211.16098,224.09163 63.267726,268.82419 -68.933074,308.81034 -185.92834,439.39772 -137.009,577.56341 Z"
       id="path3460"
       inkscape:connector-curvature="0"
       sodipodi:nodetypes="ccccc" />
    <path
       style="fill:#f6d20a;fill-opacity:1;stroke:none"
       d="M -118.90246,572.06578 C -167.06237,436.045 -44.452584,316.512 69.524736,282.03783 191.68458,245.08873 346.42604,271.9723 389.04064,392.33117 432.0956,513.93371 304.55871,634.07842 162.24684,677.12283 50.495156,710.92383 -70.587934,708.52326 -118.90246,572.06578 Z"
       id="path3462"
       inkscape:connector-curvature="0"
       sodipodi:nodetypes="ccccc" />
    <path
       style="fill:#000000;fill-opacity:1;stroke:none"
       d="m -24.388544,595.00505 c -11.77502,-33.25686 -8.48222,-74.32452 14.26353,-114.92022 23.96931,-43.81876 63.19977,-87.04519 127.585884,-106.51975 67.14074,-20.30773 179.97229,-4.02696 209.4937,79.35197 26.24575,74.12738 -40.1481,161.27016 -144.85502,192.94038 -66.58991,20.14113 -124.500334,20.79035 -156.329514,6.52615 -24.3269901,-10.74242 -39.74054,-27.95427 -50.15858,-57.37853 z"
       id="path3468"
       inkscape:connector-curvature="0"
       sodipodi:nodetypes="ccccccc" />
    <path
       style="fill:#e92926;fill-opacity:1;stroke:none"
       d="m 43.217046,638.10328 42.09523,-8.48748 -9.49382,-59.31142 23.43566,-2.4524 -7.23579,-34.72164 -95.4813601,16.29119 5.57581,36.47511 29.6344001,-5.76923 z"
       id="path3470"
       inkscape:connector-curvature="0" />
    <path
       style="fill:#e92926;fill-opacity:1;stroke:none"
       d="m 100.83797,636.05211 -12.376854,-59.46159 18.557644,-4.52036 -3.5353,-19.69252 11.96878,-3.45208 6.21466,21.4879 9.27394,-1.88037 -3.69728,-30.90713 31.64087,-7.9732 14.60458,86.8321 -28.94672,5.6809 -8.58839,-31.86536 -11.45558,2.54023 6.33099,36.2467 z"
       id="path3472"
       inkscape:connector-curvature="0" />
    <path
       style="fill:#e92926;fill-opacity:1;stroke:none"
       d="m 186.30224,505.23649 c -0.88209,0.36357 -1.60342,1.15959 -1.87255,2.13643 l -14.82251,50.72828 5.94302,30.15056 13.97644,-1.58691 4.46452,-11.15125 26.59829,-10.63805 12.68137,7.74941 24.6033,-8.17913 -68.65243,-58.7602 c -0.98849,-0.7312 -2.03735,-0.8127 -2.91945,-0.44914 z m 10.58594,41.25902 12.01482,6.23815 -14.44151,5.24826 2.42669,-11.48641 z"
       id="path3474"
       inkscape:connector-curvature="0" />
    <path
       style="fill:#e92926;fill-opacity:1;stroke:none"
       d="m 291.26343,567.13233 -6.70103,-51.76344 23.38674,-6.30102 -8.86546,-32.08904 -81.26176,17.11147 5.9482,27.03217 25.34855,-3.96853 6.02873,35.91777 12.41749,11.45833 -4.41298,3.01587 -3.35556,3.11633 -0.71445,1.39289 0.0782,2.58213 0.43338,0.9616 z"
       id="path3478"
       inkscape:connector-curvature="0" />
    <path
       style="fill:#e92926;fill-opacity:1;stroke:none"
       d="m 60.077466,421.83172 c -1.38655,0.38818 -2.52557,1.71895 -2.90661,3.44831 l -32.07828,105.49914 35.82865,-12.26425 5.66319,-14.22571 31.27457,-11.90972 14.244484,8.82284 24.36819,-9.51144 -72.922574,-68.81582 c -1.16721,-1.07618 -2.39333,-1.34559 -3.47162,-1.04335 z m 11.97995,49.94836 14.10567,8.57936 -18.21408,7.36456 4.10841,-15.94392 z"
       id="path3480"
       inkscape:connector-curvature="0" />
    <path
       style="fill:#e92926;fill-opacity:1;stroke:none"
       d="m 117.39053,463.35844 -7.95846,-52.64974 32.92721,-6.17677 13.66174,53.27821 36.844,-7.44558 8.82294,39.61171 -72.80743,17.90298 -2.70781,-6.07365 19.60619,-10.21701 z"
       id="path3484"
       inkscape:connector-curvature="0" />
    <path
       style="fill:#e92926;fill-opacity:1;stroke:none"
       d="m 215.05316,477.61216 -28.62519,-82.29074 34.80547,-14.64618 21.49695,54.94302 28.53471,-11.23646 14.04415,25.76022 c -21.10029,9.56772 -70.25609,27.47014 -70.25609,27.47014 z"
       id="path3486"
       inkscape:connector-curvature="0"
       sodipodi:nodetypes="ccccccc" />
    <path
       style="fill:#000000;fill-opacity:1;stroke:none"
       d="m 79.999086,357.44509 c -3.3331,-9.41391 5.16468,-18.85823 12.86153,-21.18626 4.02767,-1.21822 9.639404,0.69549 11.126734,4.89623 2.41655,6.82518 -3.27009,15.66997 -13.282574,18.6984 -6.93342,2.0971 -9.44104,1.16342 -10.70569,-2.40837 z"
       id="path3492"
       inkscape:connector-curvature="0"
       sodipodi:nodetypes="ccccc" />
    <path
       style="fill:#000000;fill-opacity:1;stroke:none"
       d="m 140.35569,334.06833 c -1.66475,-4.70187 2.40112,-10.18253 9.85574,-12.4373 3.40024,-1.02845 7.55663,1.66505 7.55663,1.66505 3.11636,1.68039 7.37279,4.03189 8.63635,7.6006 1.8091,5.10954 -1.96992,12.40578 -8.68348,14.43638 -5.20609,1.57468 -14.47461,-3.1006 -17.36524,-11.26473 z"
       id="path3494"
       inkscape:connector-curvature="0"
       sodipodi:nodetypes="cccccc" />
    <path
       style="fill:#000000;fill-opacity:1;stroke:none"
       d="m -181.73264,424.12812 c -1.8386,-5.19288 0.0584,-10.18139 3.51341,-11.22639 4.46568,-1.35072 8.87484,1.7536 12.61815,0.76006 3.96918,-1.20052 15.26192,2.06479 17.48622,6.7173 4.96562,-1.50193 4.64381,-2.71224 8.24432,-3.80127 7.10415,-2.14876 9.56047,6.23678 13.42456,5.44941 6.00031,2.6445 16.02067,2.7636 17.86408,7.97004 3.26246,9.21436 -0.88972,11.38374 -7.24389,13.30564 l -23.18958,-5.94314 -12.90385,-3.05115 -4.04955,-0.6771 -5.37212,-2.00073 -11.22991,-1.47721 c -4.0974,-0.51724 -8.07302,-2.95026 -9.16184,-6.02546 z"
       id="path3496"
       inkscape:connector-curvature="0"
       sodipodi:nodetypes="cccccccccccccc" />
    <path
       style="fill:#000000;fill-opacity:1;stroke:none"
       d="m -158.74557,378.72545 c -1.7075,-4.82261 -2.36127,-11.47393 2.26936,-12.87453 5.23085,-1.58214 7.83027,4.10393 13.10393,2.50883 l 3.64107,-2.5723 c 3.96734,-1.19998 7.67881,1.22302 8.88364,4.62588 1.02163,2.88545 -0.0574,5.64052 6.53459,6.38712 10.43907,0.0651 12.87406,1.30406 18.37906,11.50443 l 6.018406,5.13268 -14.826246,10.0715 c -9.49802,-1.25824 -13.57883,-7.12542 -19.59846,-12.49752 -2.61223,-2.74553 -8.43893,-4.04461 -12.28922,-3.35595 0,0 -10.24753,-3.65255 -12.11613,-8.93014 z"
       id="path3498"
       inkscape:connector-curvature="0"
       sodipodi:nodetypes="cccccccccccc" />
    <path
       style="fill:#000000;fill-opacity:1;stroke:none"
       d="m -96.131374,360.43494 -0.99533,-5.31572 c -0.89457,-2.52657 -2.08745,-3.79671 -4.946436,-2.93196 -3.70394,1.1203 -11.39642,-0.22792 -12.57637,-3.23934 l -0.37735,-4.16574 c -1.62929,-4.6017 -10.36013,-2.76159 -11.9426,-7.23105 -1.15419,-3.25984 4.1836,-13.45352 7.0102,-14.30847 3.59015,-1.08588 9.61245,1.17463 10.45755,3.56149 l 0.33395,4.35396 c 1.37264,3.87681 3.73078,1.30919 7.24055,0.24761 3.120646,-0.9439 8.132416,3.2816 11.929556,8.24368 3.27683,-0.58501 6.99501,-1.00504 10.85594,0.75114 1.99272,0.62714 4.3726,0.25847 11.0791,5.0546 l 2.66865,9.1114 -19.92549,9.05283 c 0,0 -8.85767,2.33507 -10.81192,-3.18443 z"
       id="path3500"
       inkscape:connector-curvature="0"
       sodipodi:nodetypes="cccccccccccccccc" />
    <path
       style="fill:#000000;fill-opacity:1;stroke:none"
       d="m -78.292414,279.37631 c -1.21507,-3.43181 -0.35472,-7.56011 4.78642,-9.11512 4.47567,-1.35374 6.84813,-0.88029 7.47468,0.8893 1.08722,3.07068 -1.0531,5.0031 -0.21321,7.37525 0,0 5.90634,4.79546 9.75691,4.18125 3.18235,-0.23328 7.5296,-1.36738 9.36752,3.82357 l 1.23034,8.48398 c 0.94516,2.66947 4.0173,3.18318 7.10253,2.25 3.00165,-0.90788 5.06153,1.44518 3.39858,5.33179 l -0.92458,2.95431 c 0.86068,2.43087 7.37265,3.67105 11.39748,5.28989 l -5.9991,16.0793 -12.82318,-3.19438 c -1.49705,-3.15163 -9.64235,-0.7038 -10.97467,-4.46675 -0.95512,-2.69759 0.25646,-6.32548 -0.59667,-8.73503 -0.72488,-2.04732 -4.20289,0.0231 -6.56976,0.73892 -3.47197,1.05016 -3.94096,1.29926 -9.84894,-15.38696 -2.14165,-6.0488 -0.99814,-9.86895 -1.56612,-11.4731 -0.49852,-1.408 -3.32614,-0.30366 -4.99823,-5.02622 z"
       id="path3502"
       inkscape:connector-curvature="0"
       sodipodi:nodetypes="ccccccccccccccccccc" />
    <path
       style="fill:#000000;fill-opacity:1;stroke:none"
       d="m 20.351856,308.08501 c -4.10088,1.24036 -10.10782,-2.94607 -15.4301901,-17.97834 -1.11696,-3.57582 2.79271,-7.13965 1.6505,-10.36566 -1.56129,-4.40963 -10.84946,-2.0724 -13.35713,-9.15493 -1.43216,-4.04494 2.06691,-5.47919 0.86304,-8.87936 -1.61102,-4.55004 -4.4169599,-7.19229 -5.8536499,-7.44217 -1.76148,-0.0489 -4.78604,1.1387 -7.17739,-5.61531 -1.88153,-5.31409 -3.21845,-10.2006 0.99497,-11.47501 5.00915,-1.5151 7.92201,1.42328 11.1572699,4.05488 2.07571,2.14398 6.06783996,3.63288 9.22469,2.67803 2.76942,-0.83766 5.28866,1.76502 6.09447,4.04091 0.86869,1.61703 -1.1009,3.19841 -0.43961,5.06614 1.29316,3.65231 9.2025901,4.84189 10.9078101,9.65804 1.15326,3.25723 -1.97874,4.80059 -1.4598,6.26628 0.75005,2.11841 7.52169,2.50619 9.05298,6.83112 l -0.31683,3.18659 4.42279,2.28785 c 3.28155,9.26829 1.72822,23.19256 -10.33392,26.84094 z"
       id="path3504"
       inkscape:connector-curvature="0"
       sodipodi:nodetypes="cccccccccccccccccc" />
    <path
       style="fill:#000000;fill-opacity:1;stroke:none"
       d="m 51.397386,274.62291 c 0,0 2.95062,-3.91084 1.52085,-7.94904 -0.95936,-2.70955 -1.48427,-3.4546 0.34629,-6.9994 l -3.44059,-9.7174 c 0,0 -8.21125,-2.59862 -9.57024,-6.43685 -1.34485,-3.79837 2.55925,-4.27417 1.72072,-6.64245 -0.78232,-2.20954 -4.68586,-2.28876 -5.89572,-5.70579 -1.32629,-3.74597 0.20344,-5.91871 -1.26888,-10.07709 -0.69295,-2.31794 8.04527,-8.91205 11.98982,-10.10514 4.82617,-1.45974 9.00551,2.24456 10.43894,6.29308 2.16223,6.10691 -2.69401,7.23288 -1.99033,9.22033 0.92728,2.61898 10.32477,5.41405 13.27814,13.75536 1.38356,3.9077 -1.05046,7.05139 -0.0295,9.93489 1.02157,2.88524 4.9238,-0.007 7.79546,8.10303 0.71169,2.01006 -2.8992,4.24157 -2.11241,6.46376 l 2.10423,3.34577 z"
       id="path3506"
       inkscape:connector-curvature="0"
       sodipodi:nodetypes="ccccccccccccccccc" />
    <path
       style="fill:#000000;fill-opacity:1;stroke:none"
       d="m 99.426076,260.928 c 1.499994,-2.54116 5.169704,-5.43531 4.392984,-7.629 -0.7322,-2.06803 -4.334424,-0.55409 -6.361124,-6.27822 -3.44318,-9.72477 -0.94575,-11.94721 -1.6525,-13.94331 -0.64304,-1.81623 -6.22322,-2.36386 -7.29836,-5.40041 -3.19892,-9.03491 9.27981,-13.67772 6.88279,-20.44774 -0.67484,-1.90602 -3.21048,-3.31636 -3.79721,-4.97348 -1.96657,-5.55435 5.33337,-12.56732 11.190344,-15.33151 0,0 8.98474,3.48451 10.28973,7.17025 1.10848,3.13077 -5.31725,5.57515 -3.16434,11.65571 l 2.35653,5.17152 c 2.23279,6.30616 -4.2251,6.61898 -3.25302,9.36449 1.56164,4.16511 8.62746,3.03201 10.33983,7.86838 2.54618,7.1913 -1.91668,14.80849 0.75608,22.35728 1.85161,5.2296 -0.96612,6.17641 -0.96612,6.17641 l -6.02778,9.13393 z"
       id="path3508"
       inkscape:connector-curvature="0"
       sodipodi:nodetypes="ccccccccccccccccc" />
    <path
       style="fill:#000000;fill-opacity:1;stroke:none"
       d="m 173.18448,273.15143 c -3.0213,0.91385 -6.10658,-0.73569 -7.44758,-4.52318 l 0.41492,-13.85535 c 1.04658,-1.96958 2.05676,-3.83809 1.26046,-6.08717 -0.86789,-2.45121 -8.03114,-11.36594 -8.75163,-13.40089 -1.15695,-3.2676 2.92779,-7.98887 6.41042,-20.48322 -0.47853,-1.35153 -3.70417,-1.74238 -4.57541,-4.20309 -1.50924,-4.26263 2.73497,-13.01178 7.37636,-14.41565 4.07724,-1.23322 10.1505,2.51006 11.48329,6.27432 1.2244,3.45813 -4.84917,4.8564 -4.10843,6.94857 0.7735,2.18462 5.42987,0.86514 7.28917,6.11648 0.95132,2.68685 -0.0738,4.96616 -1.84112,8.34308 -1.38714,2.87021 -2.60074,6.21317 -1.71729,9.43492 l 0.20041,2.79234 c 0.7082,2.00023 4.43941,0.47955 5.11118,2.37685 0.59546,1.68178 -1.73257,3.26958 -0.88082,5.6752 l 3.08172,8.51831 c 1.90647,5.38458 -4.06758,17.6943 -13.30565,20.48848 z"
       id="path3510"
       inkscape:connector-curvature="0"
       sodipodi:nodetypes="cccccccccccccccccc" />
    <path
       style="fill:#000000;fill-opacity:1;stroke:none"
       d="m 229.22195,272.05393 c -5.07736,1.53571 -9.31466,-1.10773 -12.45341,-4.3447 l 6.14758,-23.04162 0.0722,-4.51888 -2.1661,-2.70706 -2.06987,-10.17515 c -1.45478,-3.83942 2.08154,-6.50032 4.35761,-7.37009 l 1.72462,-1.95061 c 2.28384,-3.74417 0.82515,-11.34496 7.19185,-13.27067 3.61602,-1.09372 13.85586,2.40244 15.18816,6.16532 0.87573,2.47336 -2.44269,4.21927 -4.52465,9.52199 -0.86284,2.63374 1.21521,7.3381 -0.22011,12.75908 l -2.79351,7.06508 -2.83343,8.0018 0.24679,4.63253 -0.72999,4.7598 z"
       id="path3512"
       inkscape:connector-curvature="0"
       sodipodi:nodetypes="ccccccccccccccccc" />
    <path
       style="fill:#000000;fill-opacity:1;stroke:none"
       d="m 265.84679,266.48187 c 1.99492,-5.32639 1.48708,-10.86226 -0.13544,-16.51816 -2.54862,-8.33639 -1.36191,-11.91968 2.16879,-16.96292 0,0 -4.67636,-1.40114 -5.57701,-3.94492 -1.26111,-3.56182 3.9249,-9.73701 5.92994,-12.63686 1.76414,-3.54701 -1.09659,-6.72898 6.46842,-9.01713 3.62564,-1.09664 6.65894,-0.60795 7.3114,1.2348 l 0.55632,6.55626 c 0.84189,2.37779 4.9109,0.22701 6.80954,5.58945 1.12959,3.1904 -1.10332,8.06696 -3.75482,12.48337 -3.34702,4.36931 -6.12642,11.03252 -4.7072,15.04087 l 2.15303,3.71964 c 1.75525,4.95745 -3.89711,11.38294 -7.81508,16.23311 z"
       id="path3514"
       inkscape:connector-curvature="0"
       sodipodi:nodetypes="cccccccccccccc" />
    <path
       style="fill:#000000;fill-opacity:1;stroke:none"
       d="m 292.07536,277.46129 3.80286,-9.72402 c 0,0 1.13353,-3.36883 3.56332,-4.10376 3.22299,-0.92764 3.73935,2.73552 6.94236,1.76671 2.7111,-0.82 2.23408,-3.36547 4.76167,-4.12999 2.03428,-0.61529 2.23989,1.84419 4.24672,1.23718 1.59852,-0.48349 2.38182,-2.97792 2.44156,-5.69776 0.45004,-3.03941 0.69065,-4.45012 3.28391,-6.20476 1.85066,-1.30173 3.80473,-3.67254 6.7453,-4.56195 3.44505,-1.04202 6.14972,2.1746 11.44329,0.57348 4.08028,-1.29046 9.82248,-1.38058 10.57733,0.75138 1.45647,4.11355 -1.86479,8.09073 -4.30879,12.23063 0.48355,4.20938 -0.33665,6.74222 -13.23159,10.6425 -13.96711,4.22456 -15.17869,6.54906 -19.76588,13.96383 z"
       id="path3516"
       inkscape:connector-curvature="0"
       sodipodi:nodetypes="ccccccccccccccc" />
  </g>
</svg>
